<?xml version="1.0" encoding="UTF-8"?>
<svg width="32px" height="32px" viewBox="0 0 32 32" version="1.1" xmlns="http://www.w3.org/2000/svg">
    <g stroke="none" stroke-width="1" fill="none" fill-rule="evenodd">
        <g fill="#4F46E5">
            <path d="M16,0 C24.8365556,0 32,7.16344444 32,16 C32,24.8365556 24.8365556,32 16,32 C7.16344444,32 0,24.8365556 0,16 C0,7.16344444 7.16344444,0 16,0 Z M16,2 C8.26801111,2 2,8.26801111 2,16 C2,23.7319889 8.26801111,30 16,30 C23.7319889,30 30,23.7319889 30,16 C30,8.26801111 23.7319889,2 16,2 Z M16,6 C19.3137085,6 22,8.6862915 22,12 C22,15.3137085 19.3137085,18 16,18 C12.6862915,18 10,15.3137085 10,12 C10,8.6862915 12.6862915,6 16,6 Z M16,20 C21.5228475,20 26,22.6862915 26,26 L6,26 C6,22.6862915 10.4771525,20 16,20 Z"></path>
        </g>
    </g>
</svg>
