<svg width="32" height="32" viewBox="0 0 32 32" fill="none" xmlns="http://www.w3.org/2000/svg">
<path d="M14.9923 3.74555C15.615 3.3823 16.385 3.3823 17.0077 3.74555L26.0077 8.99555C26.6222 9.35397 27 10.0118 27 10.7231V21.2769C27 21.9882 26.6222 22.646 26.0077 23.0044L17.0077 28.2544C16.385 28.6177 15.615 28.6177 14.9923 28.2544L5.99226 23.0044C5.37782 22.646 5 21.9882 5 21.2769V10.7231C5 10.0118 5.37782 9.35397 5.99226 8.99555L14.9923 3.74555Z" stroke="#8291A4" stroke-width="2"/>
<path d="M18.3843 10.0732C19.885 9.70949 21.5133 10.7451 21.8891 12.2153C22.3157 13.639 21.4703 15.2859 20.0632 15.7901C19.3844 16.0751 18.6184 15.9488 17.933 16.2015C16.8458 16.6323 16.0369 17.7233 16.0395 18.8994C16.0343 19.7442 15.7066 20.5992 15.0771 21.1808C14.2383 21.9559 12.9378 22.2409 11.874 21.774C10.7673 21.3459 9.96233 20.2175 10.0039 19.0284C9.94152 17.9064 10.6256 16.8231 11.6309 16.3253C12.298 15.9462 13.0991 16.088 13.8144 15.8791C14.7624 15.6405 15.544 14.89 15.8574 13.9756C16.1032 13.3579 15.9693 12.6705 16.1709 12.0437C16.5103 11.0739 17.3621 10.2821 18.3843 10.0745V10.0732Z" fill="#8291A4"/>
</svg>
