<svg width="32" height="33" viewBox="0 0 32 33" fill="none" xmlns="http://www.w3.org/2000/svg">
<path d="M14.9923 3.76777C15.615 3.40451 16.385 3.40451 17.0077 3.76777L26.0077 9.01777C26.6222 9.37619 27 10.034 27 10.7453V21.2991C27 22.0104 26.6222 22.6682 26.0077 23.0267L17.0077 28.2767C16.385 28.6399 15.615 28.6399 14.9923 28.2767L5.99226 23.0267C5.37782 22.6682 5 22.0104 5 21.2991V10.7453C5 10.034 5.37782 9.37619 5.99226 9.01777L14.9923 3.76777Z" stroke="white" stroke-width="2"/>
<path d="M18.3843 10.0954C19.885 9.7317 21.5133 10.7673 21.8891 12.2375C22.3157 13.6612 21.4703 15.3081 20.0632 15.8123C19.3844 16.0974 18.6184 15.971 17.933 16.2237C16.8458 16.6545 16.0369 17.7455 16.0395 18.9217C16.0343 19.7664 15.7066 20.6214 15.0771 21.203C14.2383 21.9781 12.9378 22.2631 11.874 21.7963C10.7673 21.3681 9.96233 20.2397 10.0039 19.0506C9.94152 17.9286 10.6256 16.8453 11.6309 16.3475C12.298 15.9684 13.0991 16.1102 13.8144 15.9013C14.7624 15.6627 15.544 14.9122 15.8574 13.9978C16.1032 13.3801 15.9693 12.6927 16.1709 12.0659C16.5103 11.0961 17.3621 10.3043 18.3843 10.0967V10.0954Z" fill="white"/>
</svg>
