<svg width="33" height="32" viewBox="0 0 33 32" fill="none" xmlns="http://www.w3.org/2000/svg">
<path d="M3.22327 11.3249C3.15209 10.9075 3.35162 10.4904 3.72136 10.2839L16.0123 3.41788C16.3154 3.24857 16.6846 3.24857 16.9877 3.41788L29.2786 10.2839C29.6484 10.4904 29.8479 10.9075 29.7767 11.3249L27.0757 27.1681C26.9938 27.6486 26.5773 28 26.0899 28H6.9101C6.42267 28 6.00625 27.6486 5.92433 27.1681L3.22327 11.3249Z" stroke="#8291A4" stroke-width="2"/>
<path d="M13.5 20C13.5 18.3431 14.8431 17 16.5 17C18.1569 17 19.5 18.3431 19.5 20V27H13.5V20Z" fill="#8291A4"/>
</svg>
