<svg width="33" height="32" viewBox="0 0 33 32" fill="none" xmlns="http://www.w3.org/2000/svg">
<path d="M16.5125 30.0063C14.6218 30.0063 12.7906 29.6376 11.0625 28.9063C9.39683 28.2001 7.89995 27.1907 6.61245 25.9063C5.32808 24.622 4.3187 23.1251 3.61245 21.4563C2.8812 19.7313 2.51245 17.897 2.51245 16.0063C2.51245 14.1157 2.8812 12.2845 3.61245 10.5563C4.3187 8.89072 5.32808 7.39385 6.61245 6.10635C7.89683 4.82197 9.3937 3.8126 11.0625 3.10635C12.7875 2.3751 14.6218 2.00635 16.5125 2.00635C18.4031 2.00635 20.2343 2.3751 21.9625 3.10635C23.6281 3.8126 25.125 4.82197 26.4125 6.10635C27.6968 7.39072 28.7062 8.8876 29.4125 10.5563C30.1437 12.2813 30.5125 14.1157 30.5125 16.0063C30.5125 17.897 30.1437 19.7282 29.4125 21.4563C28.7062 23.122 27.6968 24.6188 26.4125 25.9063C25.1281 27.1938 23.6312 28.2001 21.9625 28.9063C20.2343 29.6345 18.4 30.0063 16.5125 30.0063ZM16.5125 3.88447C9.82808 3.88447 4.39058 9.32197 4.39058 16.0063C4.39058 22.6907 9.82808 28.1282 16.5125 28.1282C23.1968 28.1282 28.6343 22.6907 28.6343 16.0063C28.6343 9.32197 23.1968 3.88447 16.5125 3.88447Z" fill="#8291A4"/>
<path d="M4.81557 28.1717C3.59682 28.1717 2.69369 27.8092 2.12807 27.0904C1.53119 26.3342 1.40619 25.3061 1.74994 24.0342C2.03119 22.9998 2.63119 21.7998 3.53119 20.4654C3.82182 20.0373 4.40307 19.9217 4.83119 20.2123C5.25932 20.5029 5.37494 21.0842 5.08432 21.5123C3.39369 24.0186 3.22807 25.4561 3.59994 25.9279C4.03119 26.4779 5.77807 26.5061 8.70307 25.3342C11.7718 24.1061 15.4156 21.8873 18.9624 19.0904C22.5093 16.2936 25.5156 13.2686 27.4249 10.5717C29.2468 7.9998 29.6249 6.29668 29.1937 5.74668C28.8531 5.31543 27.5593 5.12168 25.0281 5.99043C24.8218 6.0623 24.6062 6.14043 24.3906 6.22168C23.9062 6.40605 23.3656 6.16543 23.1781 5.68105C22.9906 5.19668 23.2343 4.65605 23.7187 4.46855C23.9531 4.37793 24.1906 4.29355 24.4156 4.21543C25.7906 3.74355 26.9874 3.50293 27.9718 3.50293H27.9874C29.1999 3.50605 30.0999 3.86855 30.6656 4.58418C31.2906 5.37793 31.3999 6.46855 30.9874 7.82793C30.6499 8.9373 29.9687 10.2248 28.9562 11.6529C26.9437 14.4936 23.8062 17.6561 20.1249 20.5623C16.4406 23.4686 12.6312 25.7811 9.39994 27.0748C7.77494 27.7248 6.36244 28.0904 5.20619 28.1592C5.07182 28.1686 4.94369 28.1717 4.81557 28.1717Z" fill="#8291A4"/>
<path d="M9.71553 20.3783C7.8624 20.3783 6.35303 18.8689 6.35303 17.0158C6.35303 15.1627 7.8624 13.6533 9.71553 13.6533C11.5687 13.6533 13.078 15.1627 13.078 17.0158C13.0812 18.8721 11.5718 20.3783 9.71553 20.3783ZM9.71553 15.5283C8.89365 15.5283 8.22803 16.1971 8.22803 17.0158C8.22803 17.8346 8.89678 18.5033 9.71553 18.5033C10.5374 18.5033 11.203 17.8346 11.203 17.0158C11.203 16.1971 10.5374 15.5283 9.71553 15.5283Z" fill="#8291A4"/>
</svg>
