<svg width="32" height="32" viewBox="0 0 32 32" fill="none" xmlns="http://www.w3.org/2000/svg">
<path d="M16.0125 30.0062C14.1219 30.0062 12.2906 29.6375 10.5625 28.9062C8.89688 28.2 7.4 27.1906 6.1125 25.9062C4.82813 24.6219 3.81875 23.125 3.1125 21.4562C2.38125 19.7312 2.0125 17.8969 2.0125 16.0062C2.0125 14.1156 2.38125 12.2844 3.1125 10.5562C3.81875 8.89062 4.82813 7.39375 6.1125 6.10625C7.39688 4.82187 8.89375 3.8125 10.5625 3.10625C12.2875 2.375 14.1219 2.00625 16.0125 2.00625C17.9031 2.00625 19.7344 2.375 21.4625 3.10625C23.1281 3.8125 24.625 4.82187 25.9125 6.10625C27.1969 7.39062 28.2062 8.8875 28.9125 10.5562C29.6437 12.2812 30.0125 14.1156 30.0125 16.0062C30.0125 17.8969 29.6437 19.7281 28.9125 21.4562C28.2062 23.1219 27.1969 24.6187 25.9125 25.9062C24.6281 27.1937 23.1312 28.2 21.4625 28.9062C19.7344 29.6344 17.9 30.0062 16.0125 30.0062ZM16.0125 3.88438C9.32813 3.88438 3.89062 9.32188 3.89062 16.0062C3.89062 22.6906 9.32813 28.1281 16.0125 28.1281C22.6969 28.1281 28.1344 22.6906 28.1344 16.0062C28.1344 9.32188 22.6969 3.88438 16.0125 3.88438Z" fill="white"/>
<path d="M4.31563 28.1719C3.09688 28.1719 2.19375 27.8094 1.62813 27.0906C1.03125 26.3344 0.90625 25.3062 1.25 24.0344C1.53125 23 2.13125 21.8 3.03125 20.4656C3.32188 20.0375 3.90313 19.9219 4.33125 20.2125C4.75938 20.5031 4.875 21.0844 4.58438 21.5125C2.89375 24.0188 2.72813 25.4563 3.1 25.9281C3.53125 26.4781 5.27813 26.5063 8.20312 25.3344C11.2719 24.1063 14.9156 21.8875 18.4625 19.0906C22.0094 16.2938 25.0156 13.2687 26.925 10.5719C28.7469 8 29.125 6.29687 28.6938 5.74687C28.3531 5.31562 27.0594 5.12187 24.5281 5.99062C24.3219 6.0625 24.1063 6.14063 23.8906 6.22188C23.4063 6.40625 22.8656 6.16563 22.6781 5.68125C22.4906 5.19688 22.7344 4.65625 23.2188 4.46875C23.4531 4.37812 23.6906 4.29375 23.9156 4.21562C25.2906 3.74375 26.4875 3.50312 27.4719 3.50312H27.4875C28.7 3.50625 29.6 3.86875 30.1656 4.58437C30.7906 5.37812 30.9 6.46875 30.4875 7.82812C30.15 8.9375 29.4688 10.225 28.4563 11.6531C26.4438 14.4937 23.3063 17.6563 19.625 20.5625C15.9406 23.4688 12.1312 25.7813 8.9 27.075C7.275 27.725 5.8625 28.0906 4.70625 28.1594C4.57188 28.1687 4.44375 28.1719 4.31563 28.1719Z" fill="white"/>
<path d="M9.21562 20.3781C7.3625 20.3781 5.85312 18.8687 5.85312 17.0156C5.85312 15.1625 7.3625 13.6531 9.21562 13.6531C11.0687 13.6531 12.5781 15.1625 12.5781 17.0156C12.5812 18.8719 11.0719 20.3781 9.21562 20.3781ZM9.21562 15.5281C8.39375 15.5281 7.72812 16.1969 7.72812 17.0156C7.72812 17.8344 8.39687 18.5031 9.21562 18.5031C10.0375 18.5031 10.7031 17.8344 10.7031 17.0156C10.7031 16.1969 10.0375 15.5281 9.21562 15.5281Z" fill="white"/>
</svg>
